<svg width="24" height="24" viewBox="0 0 24 24" fill="none" xmlns="http://www.w3.org/2000/svg">
<g clip-path="url(#clip0_4320_4953)">
<path d="M19.9023 10.2969L9.938 23.7969C9.8915 23.8599 9.83087 23.9111 9.76099 23.9463C9.69111 23.9816 9.61393 24 9.53565 24C9.46974 24.0002 9.40447 23.9871 9.34375 23.9615C9.24043 23.9187 9.15447 23.8424 9.09966 23.7449C9.04485 23.6474 9.02437 23.5344 9.0415 23.4239L10.417 14.5H4.5C4.40748 14.5 4.31677 14.4743 4.23797 14.4259C4.15917 14.3774 4.09536 14.308 4.05366 14.2254C4.01196 14.1428 3.99399 14.0502 4.00176 13.958C4.00952 13.8658 4.04272 13.7776 4.09765 13.7032L14.062 0.203163C14.1284 0.113192 14.223 0.0480689 14.3308 0.0182004C14.4385 -0.0116681 14.5532 -0.00455846 14.6564 0.0383933C14.7596 0.081345 14.8455 0.15766 14.9003 0.255144C14.955 0.352627 14.9755 0.465654 14.9585 0.576163L13.583 9.50001H19.5C19.5925 9.50001 19.6832 9.52567 19.7621 9.57416C19.8409 9.62265 19.9047 9.69206 19.9464 9.77466C19.9881 9.85726 20.006 9.94981 19.9983 10.042C19.9905 10.1342 19.9573 10.2225 19.9023 10.2969Z" fill="#CDCDCD"/>
</g>
<defs>
<clipPath id="clip0_4320_4953">
<rect width="24" height="24" fill="white"/>
</clipPath>
</defs>
</svg>
